<svg width="50" height="50" viewBox="0 0 50 50" fill="none" xmlns="http://www.w3.org/2000/svg">
<rect width="50" height="50" fill="white"/>
<rect width="50" height="50" rx="25" fill="#E7015B" fill-opacity="0.1"/>
<path d="M21.6339 0.226045C13.1114 1.30604 5.11851 7.33392 1.84065 15.1953C0.302572 18.8622 0 20.4948 0 25.0659C0 29.6371 0.302572 31.2696 1.84065 34.9366C4.86636 42.1952 12.0524 47.997 19.9697 49.6044C22.5668 50.1319 27.1558 50.1319 29.8285 49.6044C41.5532 47.3188 50 37.0463 50 25.0659C50 12.3572 40.5951 1.75813 27.9375 0.226045C25.3656 -0.0753487 24.1805 -0.0753487 21.6339 0.226045ZM30.4589 3.74231C38.6536 5.87718 45.0076 12.6083 46.5709 20.7711C48.8149 32.4752 41.6793 43.6017 30.0807 46.49C27.1054 47.2184 22.7181 47.2184 19.7428 46.49C8.29551 43.6268 1.10943 32.5757 3.20222 21.0473C4.36208 14.7934 8.29551 9.24275 13.9687 5.92741C15.8598 4.79719 19.5663 3.54138 21.8104 3.21487C24.1301 2.88836 28.1392 3.1144 30.4589 3.74231Z" fill="#E7015B"/>
<path d="M24.0293 10.4986C23.7772 10.6492 23.6007 11.3023 23.525 12.4325L23.3989 14.1153L21.9365 14.5423C18.9108 15.4464 17.2214 17.4306 17.2214 20.118C17.2214 21.2483 17.3727 21.7004 18.0535 22.705C19.0873 24.2873 20.4741 25.0157 24.5336 26.1962C29.4504 27.6529 30.3329 28.2306 30.3329 30.0389C30.3329 31.5208 29.3747 32.4501 27.3828 32.8519C25.6682 33.2036 24.0797 33.0277 21.4322 32.1989C18.3057 31.2194 17.2214 31.4454 17.2214 33.078C17.2214 34.0575 18.0787 34.4845 22.466 35.6147L23.525 35.891V37.4984C23.525 39.2566 23.878 39.8845 24.8866 39.8845C25.7439 39.8845 26.2986 39.1059 26.2986 37.9003C26.2986 36.3431 26.6012 35.9663 27.988 35.7654C30.5598 35.4138 32.8543 33.4547 33.3586 31.1943C33.6864 29.7878 33.409 28.4566 32.5013 27.1003C31.5684 25.7189 29.0722 24.3627 25.9204 23.559C23.7267 22.9813 21.407 22.0269 20.701 21.3739C19.9194 20.6706 20.1211 19.3394 21.1044 18.4101C22.5417 17.0539 25.1892 16.6771 28.1897 17.4055C30.3581 17.9329 31.2658 17.8827 31.5936 17.2548C32.3248 15.8985 31.3162 14.919 28.6687 14.4167C27.6854 14.2409 26.7524 14.0148 26.5759 13.9144C26.4247 13.8139 26.2986 13.1357 26.2986 12.3823C26.2986 11.5032 26.1725 10.9004 25.8952 10.6492C25.4665 10.1972 24.6092 10.1218 24.0293 10.4986Z" fill="#E7015B"/>
</svg>
