<svg width="50" height="50" viewBox="0 0 50 50" fill="none" xmlns="http://www.w3.org/2000/svg">
<rect width="50" height="50" fill="white"/>
<rect width="50" height="49.7696" rx="24.8848" fill="#E7015B" fill-opacity="0.1"/>
<path d="M21.6482 0.224706C12.8276 1.34823 4.78831 7.59004 1.6129 15.7543C0.252016 19.2248 0 20.6729 0 25.0421C0.0252016 28.2879 0.126008 29.3864 0.554435 30.9594C1.78931 35.4785 3.93145 39.1986 7.15726 42.4193C16.1038 51.4076 30.5696 52.2564 40.5494 44.3918C46.6482 39.598 50 32.5823 50 24.6926C50 12.3089 40.4738 1.74771 27.9486 0.224706C25.378 -0.0749006 24.1683 -0.0749006 21.6482 0.224706ZM27.9486 3.19581C38.8609 4.74378 46.9506 13.9567 46.9758 24.8174C46.9758 33.6808 41.8095 41.5205 33.6442 45.0409C24.37 49.0107 13.3569 46.0895 7.28327 38.0501C0.252016 28.7373 1.76411 15.6045 10.7359 8.18926C13.0292 6.29175 14.7429 5.31802 17.5655 4.31933C21.1946 3.046 24.37 2.69646 27.9486 3.19581Z" fill="#E7015B"/>
<path d="M19.1533 9.8371C18.9013 10.0618 18.7501 10.661 18.7501 11.2852V12.3588L17.238 12.5086C15.1715 12.6834 13.6846 13.5822 12.9789 15.0552C12.4749 16.1288 12.4497 16.5283 12.4497 24.9672C12.4497 33.3812 12.4749 33.8056 12.9789 34.8293C13.357 35.5783 13.861 36.1276 14.6674 36.602L15.8519 37.2761H24.9245H33.9971L35.1816 36.602C35.988 36.1276 36.492 35.5783 36.8701 34.8293C37.3741 33.8056 37.3993 33.3812 37.3993 24.8674C37.3993 16.0789 37.3993 16.004 36.8197 14.9054C36.0636 13.5073 34.6271 12.6834 32.611 12.5086L31.0989 12.3588V11.2852C31.0989 10.0368 30.6201 9.43762 29.612 9.43762C28.6795 9.43762 28.3015 9.93696 28.1251 11.3102L27.9991 12.4337H24.8993H21.7743V11.4849C21.7743 10.2366 21.1947 9.43762 20.2622 9.43762C19.859 9.43762 19.3549 9.61239 19.1533 9.8371ZM33.6191 15.7543C34.1483 16.029 34.2491 16.2786 34.3247 17.3772L34.4003 18.6755H24.9497H15.4739V17.6019C15.4739 16.5033 15.8015 15.8542 16.482 15.6045C16.6836 15.5296 20.489 15.4547 24.9245 15.4547C30.9225 15.4298 33.1402 15.5296 33.6191 15.7543ZM34.3247 27.7136L34.3751 33.6309L33.7703 34.0304C33.241 34.3799 32.0566 34.4049 24.6725 34.3549C16.608 34.28 16.1795 34.2551 15.8267 33.8056C15.5495 33.4062 15.4739 32.1328 15.4739 27.6637C15.4739 24.5428 15.5495 21.9212 15.6503 21.8463C15.7511 21.7465 19.9598 21.6965 25.0253 21.7215L34.2491 21.7964L34.3247 27.7136Z" fill="#E7015B"/>
</svg>
