<svg width="50" height="50" viewBox="0 0 50 50" fill="none" xmlns="http://www.w3.org/2000/svg">
<rect width="50" height="50" fill="white"/>
<rect width="50" height="50" rx="25" fill="#E7015B" fill-opacity="0.1"/>
<path d="M24.9231 12.2728C25.2658 12.2728 25.5945 12.4069 25.8369 12.6456C26.0792 12.8843 26.2154 13.208 26.2154 13.5455V17.3637C26.2154 17.7013 26.0792 18.025 25.8369 18.2637C25.5945 18.5023 25.2658 18.6364 24.9231 18.6364C24.5803 18.6364 24.2516 18.5023 24.0093 18.2637C23.7669 18.025 23.6308 17.7013 23.6308 17.3637V13.5455C23.6308 13.208 23.7669 12.8843 24.0093 12.6456C24.2516 12.4069 24.5803 12.2728 24.9231 12.2728ZM24.9231 31.3637C25.2658 31.3637 25.5945 31.4978 25.8369 31.7365C26.0792 31.9752 26.2154 32.2989 26.2154 32.6364V36.4546C26.2154 36.7922 26.0792 37.1159 25.8369 37.3546C25.5945 37.5933 25.2658 37.7273 24.9231 37.7273C24.5803 37.7273 24.2516 37.5933 24.0093 37.3546C23.7669 37.1159 23.6308 36.7922 23.6308 36.4546V32.6364C23.6308 32.2989 23.7669 31.9752 24.0093 31.7365C24.2516 31.4978 24.5803 31.3637 24.9231 31.3637ZM37.8462 25.0001C37.8462 25.3376 37.71 25.6613 37.4676 25.9C37.2253 26.1387 36.8966 26.2728 36.5538 26.2728H32.6769C32.3342 26.2728 32.0055 26.1387 31.7631 25.9C31.5208 25.6613 31.3846 25.3376 31.3846 25.0001C31.3846 24.6625 31.5208 24.3388 31.7631 24.1001C32.0055 23.8614 32.3342 23.7273 32.6769 23.7273H36.5538C36.8966 23.7273 37.2253 23.8614 37.4676 24.1001C37.71 24.3388 37.8462 24.6625 37.8462 25.0001ZM18.4615 25.0001C18.4615 25.3376 18.3254 25.6613 18.083 25.9C17.8407 26.1387 17.512 26.2728 17.1692 26.2728H13.2923C12.9496 26.2728 12.6209 26.1387 12.3785 25.9C12.1362 25.6613 12 25.3376 12 25.0001C12 24.6625 12.1362 24.3388 12.3785 24.1001C12.6209 23.8614 12.9496 23.7273 13.2923 23.7273H17.1692C17.512 23.7273 17.8407 23.8614 18.083 24.1001C18.3254 24.3388 18.4615 24.6625 18.4615 25.0001ZM34.061 33.9995C33.8186 34.2381 33.49 34.3722 33.1473 34.3722C32.8046 34.3722 32.476 34.2381 32.2337 33.9995L29.4927 31.3001C29.2573 31.06 29.127 30.7385 29.13 30.4048C29.1329 30.0711 29.2688 29.7519 29.5084 29.5159C29.748 29.28 30.0721 29.1461 30.411 29.1432C30.7498 29.1403 31.0763 29.2686 31.32 29.5004L34.061 32.1986C34.1811 32.3168 34.2765 32.4572 34.3415 32.6117C34.4065 32.7662 34.44 32.9318 34.44 33.0991C34.44 33.2663 34.4065 33.4319 34.3415 33.5865C34.2765 33.741 34.1811 33.8813 34.061 33.9995ZM20.3535 20.4997C20.1111 20.7383 19.7825 20.8723 19.4398 20.8723C19.0971 20.8723 18.7685 20.7383 18.5262 20.4997L15.7865 17.8015C15.544 17.5629 15.4077 17.2391 15.4076 16.9015C15.4074 16.5639 15.5435 16.2401 15.7858 16.0013C16.0281 15.7624 16.3569 15.6282 16.6997 15.6281C17.0425 15.628 17.3713 15.762 17.6138 16.0006L20.3535 18.7001C20.5957 18.9387 20.7318 19.2624 20.7318 19.5999C20.7318 19.9374 20.5957 20.261 20.3535 20.4997ZM15.7865 33.9995C15.5442 33.7609 15.4081 33.4372 15.4081 33.0997C15.4081 32.7622 15.5442 32.4386 15.7865 32.1999L18.5274 29.5004C18.7712 29.2686 19.0976 29.1403 19.4365 29.1432C19.7753 29.1461 20.0994 29.28 20.339 29.5159C20.5786 29.7519 20.7145 30.0711 20.7175 30.4048C20.7204 30.7385 20.5902 31.06 20.3548 31.3001L17.6151 33.9995C17.4951 34.1179 17.3525 34.2117 17.1956 34.2758C17.0388 34.3398 16.8706 34.3728 16.7008 34.3728C16.5309 34.3728 16.3628 34.3398 16.2059 34.2758C16.049 34.2117 15.9065 34.1179 15.7865 33.9995ZM29.4927 20.4997C29.2504 20.261 29.1143 19.9374 29.1143 19.5999C29.1143 19.2624 29.2504 18.9387 29.4927 18.7001L32.2324 16.0006C32.3524 15.8824 32.4948 15.7885 32.6516 15.7245C32.8084 15.6605 32.9765 15.6275 33.1462 15.6274C33.316 15.6274 33.4841 15.6603 33.6409 15.7242C33.7977 15.7881 33.9403 15.8818 34.0603 16C34.1804 16.1181 34.2757 16.2584 34.3407 16.4129C34.4057 16.5673 34.4392 16.7328 34.4392 16.9C34.4393 17.0672 34.4059 17.2327 34.341 17.3872C34.2761 17.5416 34.181 17.682 34.061 17.8003L31.32 20.4997C31.0777 20.7383 30.749 20.8723 30.4063 20.8723C30.0637 20.8723 29.735 20.7383 29.4927 20.4997Z" fill="#E7015B"/>
<path d="M24.9229 11C25.2657 11 25.5944 11.1475 25.8367 11.4101C26.0791 11.6726 26.2152 12.0287 26.2152 12.4V16.6C26.2152 16.9713 26.0791 17.3274 25.8367 17.5899C25.5944 17.8525 25.2657 18 24.9229 18C24.5802 18 24.2515 17.8525 24.0091 17.5899C23.7668 17.3274 23.6306 16.9713 23.6306 16.6V12.4C23.6306 12.0287 23.7668 11.6726 24.0091 11.4101C24.2515 11.1475 24.5802 11 24.9229 11ZM24.9229 32C25.2657 32 25.5944 32.1475 25.8367 32.41C26.0791 32.6726 26.2152 33.0287 26.2152 33.4V37.6C26.2152 37.9713 26.0791 38.3274 25.8367 38.59C25.5944 38.8525 25.2657 39 24.9229 39C24.5802 39 24.2515 38.8525 24.0091 38.59C23.7668 38.3274 23.6306 37.9713 23.6306 37.6V33.4C23.6306 33.0287 23.7668 32.6726 24.0091 32.41C24.2515 32.1475 24.5802 32 24.9229 32Z" fill="#E7015B"/>
<path d="M21.717 0.229126C10.9317 1.60956 2.08231 10.1431 0.347616 20.8603C-1.38708 31.4771 3.46503 41.5919 12.7921 46.9379C14.5017 47.9168 18.4739 49.2972 20.5857 49.6737C21.6164 49.8494 23.6528 50 25.111 50C38.9885 49.9498 50 38.9063 50 25.0518C50 12.3267 40.6226 1.78525 27.8764 0.204028C25.4629 -0.072059 24.2059 -0.072059 21.717 0.229126ZM28.0021 3.21588C38.8879 4.772 46.958 14.0335 46.9831 24.9514C46.9831 32.6065 43.3126 39.3581 36.8767 43.5496C34.4381 45.1559 32.3263 45.9842 29.1837 46.6368C25.9909 47.2642 23.9545 47.2642 20.7617 46.6117C6.1802 43.65 -1.31165 27.9633 5.52655 14.7613C9.725 6.67951 18.9767 1.93584 28.0021 3.21588Z" fill="#E7015B"/>
</svg>
