<svg width="50" height="50" viewBox="0 0 50 50" fill="none" xmlns="http://www.w3.org/2000/svg">
<rect width="50" height="50" fill="white"/>
<g clip-path="url(#clip0_820_10819)">
<rect width="50" height="50" rx="25" fill="#9CD580" fill-opacity="0.2"/>
<path d="M31.4825 48.108C26.3812 49.539 20.9499 49.2418 16.0352 47.2628C11.1206 45.2838 6.99895 41.7341 4.31294 37.1673C1.62693 32.6006 0.527554 27.2733 1.18623 22.0163C1.8449 16.7593 4.2246 11.8679 7.95427 8.105C11.6839 4.34205 16.5539 1.919 21.8049 1.21367C27.0559 0.508329 32.3927 1.56035 36.9831 4.20569C41.5736 6.85103 45.1597 10.941 47.1823 15.8379C49.2049 20.7347 49.5503 26.1632 48.1646 31.277" stroke="#9CD580" stroke-width="3" stroke-linecap="round" stroke-linejoin="round"/>
</g>
<circle cx="42" cy="42" r="8" fill="#9CD580"/>
<path d="M41.7574 36.0977C41.6553 36.1587 41.5838 36.4232 41.5532 36.881L41.5021 37.5626L40.9098 37.7355C39.6842 38.1018 39 38.9054 39 39.9939C39 40.4517 39.0613 40.6348 39.337 41.0417C39.7557 41.6826 40.3174 41.9776 41.9617 42.4558C43.9531 43.0458 44.3106 43.2798 44.3106 44.0122C44.3106 44.6124 43.9225 44.9888 43.1157 45.1516C42.4212 45.294 41.7778 45.2228 40.7055 44.8871C39.4391 44.4903 39 44.5819 39 45.2431C39 45.6399 39.3472 45.8128 41.1242 46.2706L41.5532 46.3825V47.0336C41.5532 47.7457 41.6961 48 42.1046 48C42.4519 48 42.6766 47.6846 42.6766 47.1963C42.6766 46.5656 42.7991 46.413 43.3608 46.3316C44.4025 46.1892 45.3319 45.3957 45.5361 44.4802C45.6689 43.9105 45.5565 43.3713 45.1889 42.822C44.811 42.2625 43.8 41.7131 42.5234 41.3876C41.6349 41.1536 40.6953 40.7671 40.4093 40.5026C40.0928 40.2177 40.1745 39.6786 40.5728 39.3022C41.1549 38.7528 42.2272 38.6002 43.4425 38.8953C44.3208 39.1089 44.6885 39.0885 44.8212 38.8342C45.1174 38.2849 44.7089 37.8881 43.6365 37.6847C43.2383 37.6135 42.8604 37.5219 42.7889 37.4812C42.7276 37.4405 42.6766 37.1659 42.6766 36.8607C42.6766 36.5046 42.6255 36.2605 42.5132 36.1587C42.3395 35.9756 41.9923 35.9451 41.7574 36.0977Z" fill="white"/>
<path d="M21.2741 13.7805C19.5393 14.7836 18.056 15.7115 17.9554 15.862C17.6034 16.3886 17.7543 17.2663 18.2822 17.7929C18.9359 18.445 19.489 18.3196 21.4501 17.166C22.2546 16.6895 22.9837 16.3886 23.1095 16.4889C23.21 16.5892 23.2603 20.5515 23.2352 25.3162L23.1597 33.9428L20.3187 34.0682C17.2766 34.1936 17 34.319 17 35.623C17 37.0023 17.4526 37.0775 24.6682 37.0775C32.0599 37.0775 32.3365 37.0274 32.3365 35.4475C32.3365 34.2688 31.8337 34.0682 28.8669 34.0682C26.8053 34.0682 26.3276 33.993 26.2019 33.667C26.1265 33.4413 26.051 28.6766 26.051 23.0592C26.051 13.4796 26.0259 12.8025 25.5985 12.4264C25.3471 12.1756 24.9699 12 24.7688 12C24.5677 12 23.0089 12.8025 21.2741 13.7805Z" fill="#9CD580"/>
<defs>
<clipPath id="clip0_820_10819">
<rect width="50" height="50" rx="25" fill="white"/>
</clipPath>
</defs>
</svg>
