<svg width="50" height="50" viewBox="0 0 50 50" fill="none" xmlns="http://www.w3.org/2000/svg">
<rect width="50" height="50" fill="white"/>
<rect width="50" height="50" rx="25" fill="#9CD580" fill-opacity="0.2"/>
<path d="M21.7155 0.225699C9.924 1.75542 0.747248 11.6109 0.0432777 23.5227C-0.63555 35.284 6.73099 45.7162 17.9442 48.9763C24.0788 50.7568 30.4397 50.2051 36.1469 47.3964C44.5945 43.2837 50 34.5317 50 25.0273C50 12.3632 40.597 1.75542 28.0009 0.225699C25.4365 -0.0752307 24.2297 -0.0752307 21.7155 0.225699ZM27.9758 3.20992C37.2531 4.51395 44.8711 11.661 46.5807 20.7391C48.8938 32.8515 41.1752 44.2367 29.0569 46.6441C23.752 47.6723 17.9191 46.5939 13.3433 43.6599C5.80075 38.8701 1.85349 30.2434 3.23628 21.5165C5.09678 9.83037 16.2346 1.60496 27.9758 3.20992Z" fill="#9CD580"/>
<path d="M21.5898 14.2691C19.855 15.2722 18.3716 16.2001 18.2711 16.3505C17.9191 16.8772 18.0699 17.7549 18.5979 18.2815C19.2516 18.9335 19.8047 18.8081 21.7658 17.6546C22.5703 17.1781 23.2994 16.8772 23.4251 16.9775C23.5257 17.0778 23.576 21.04 23.5508 25.8047L23.4754 34.4314L20.6344 34.5568C17.5922 34.6822 17.3157 34.8076 17.3157 36.1116C17.3157 37.4908 17.7682 37.5661 24.9839 37.5661C32.3756 37.5661 32.6522 37.5159 32.6522 35.936C32.6522 34.7574 32.1493 34.5568 29.1826 34.5568C27.121 34.5568 26.6433 34.4815 26.5176 34.1555C26.4421 33.9298 26.3667 29.1651 26.3667 23.5478C26.3667 13.9682 26.3416 13.2911 25.9142 12.9149C25.6627 12.6641 25.2856 12.4886 25.0845 12.4886C24.8834 12.4886 23.3246 13.2911 21.5898 14.2691Z" fill="#9CD580"/>
<path d="M30 22L36 28M30 28L36 22" stroke="#9CD580" stroke-width="2" stroke-linecap="round" stroke-linejoin="round"/>
</svg>
