<svg width="50" height="50" viewBox="0 0 50 50" fill="none" xmlns="http://www.w3.org/2000/svg">
  <rect width="50" height="50" fill="white"/>
  <g clip-path="url(#clip0_835_10979)">
    <rect width="50" height="50" rx="25" fill="#E7015B" fill-opacity="0.2"/>
    <path d="M31.4825 48.108C26.3812 49.539 20.9499 49.2418 16.0352 47.2628C11.1206 45.2838 6.99895 41.7341 4.31294 37.1673C1.62693 32.6006 0.527554 27.2733 1.18623 22.0163C1.8449 16.7593 4.2246 11.8679 7.95427 8.105C11.6839 4.34205 16.5539 1.919 21.8049 1.21367C27.0559 0.508329 32.3927 1.56035 36.9831 4.20569C41.5736 6.85103 45.1597 10.941 47.1823 15.8379C49.2049 20.7347 49.5503 26.1632 48.1646 31.277" stroke="#E7015B" stroke-width="3" stroke-linecap="round" stroke-linejoin="round"/>
    <path d="M23.8079 10.2412C23.5557 10.3919 23.3792 11.0449 23.3036 12.1751L23.1775 13.8579L21.7151 14.2849C18.6894 15.1891 17 17.1732 17 19.8607C17 20.9909 17.1513 21.443 17.8321 22.4476C18.8659 24.0299 20.2526 24.7583 24.3122 25.9388C29.2289 27.3955 30.1114 27.9732 30.1114 29.7815C30.1114 31.2634 29.1533 32.1927 27.1614 32.5946C25.4468 32.9462 23.8583 32.7704 21.2108 31.9415C18.0842 30.962 17 31.188 17 32.8206C17 33.8001 17.8573 34.2271 22.2446 35.3573L23.3036 35.6336V37.241C23.3036 38.9992 23.6566 39.6271 24.6652 39.6271C25.5224 39.6271 26.0772 38.8485 26.0772 37.6429C26.0772 36.0857 26.3797 35.709 27.7665 35.508C30.3384 35.1564 32.6329 33.1973 33.1372 30.9369C33.465 29.5304 33.1876 28.1992 32.2799 26.843C31.3469 25.4616 28.8507 24.1053 25.6989 23.3016C23.5053 22.7239 21.1856 21.7695 20.4796 21.1165C19.6979 20.4132 19.8996 19.0821 20.883 18.1528C22.3202 16.7965 24.9677 16.4197 27.9682 17.1481C30.1367 17.6756 31.0444 17.6253 31.3722 16.9974C32.1034 15.6411 31.0948 14.6616 28.4473 14.1593C27.4639 13.9835 26.531 13.7574 26.3545 13.657C26.2032 13.5565 26.0772 12.8784 26.0772 12.1249C26.0772 11.2458 25.9511 10.643 25.6737 10.3919C25.2451 9.93978 24.3878 9.86443 23.8079 10.2412Z" fill="#E7015B"/>
  </g>
  <circle cx="42" cy="42" r="8" fill="#E7015B"/>
  <path d="M40.6721 37.71C39.9934 38.11 39.4131 38.48 39.3738 38.54C39.2361 38.75 39.2951 39.1 39.5016 39.31C39.7574 39.57 39.9738 39.52 40.741 39.06C41.0557 38.87 41.341 38.75 41.3902 38.79C41.4295 38.83 41.4492 40.41 41.4393 42.31L41.4098 45.75L40.2984 45.8C39.1082 45.85 39 45.9 39 46.42C39 46.97 39.177 47 42 47C44.8918 47 45 46.98 45 46.35C45 45.88 44.8033 45.8 43.6426 45.8C42.8361 45.8 42.6492 45.77 42.6 45.64C42.5705 45.55 42.541 43.65 42.541 41.41C42.541 37.59 42.5311 37.32 42.3639 37.17C42.2656 37.07 42.118 37 42.0393 37C41.9607 37 41.3508 37.32 40.6721 37.71Z" fill="white"/>
  <defs>
    <clipPath id="clip0_835_10979">
      <rect width="50" height="50" rx="25" fill="white"/>
    </clipPath>
  </defs>
</svg>
