<svg width="50" height="50" viewBox="0 0 50 50" fill="none" xmlns="http://www.w3.org/2000/svg">
<rect width="50" height="50" fill="white"/>
<rect width="50" height="50" rx="25" fill="#9CD580" fill-opacity="0.1"/>
<path d="M18.5072 14.1591C17.5795 14.5984 17.3692 15.0126 17.1465 16.7448C17.0476 17.5356 16.8002 19.4686 16.5899 21.0628C15.8972 26.435 15.8972 26.4099 16.1693 26.9622C16.6517 27.9664 16.6517 27.9539 20.7091 28.0292C23.8139 28.0794 24.3211 28.117 24.3087 28.2802C24.2963 28.481 24.1355 29.1212 22.8243 34.4809C22.3914 36.2759 22.0326 37.87 22.0326 38.0206C22.0326 38.4097 22.4656 38.9118 22.8614 38.9871C23.2696 39.0625 23.8758 38.7989 24.1479 38.4097C26.1394 35.5604 33.8706 23.7112 33.9572 23.3598C34.1304 22.7196 33.7593 21.8159 33.1779 21.4142C32.7697 21.1255 32.6831 21.1255 29.4422 21.1255C27.6238 21.1255 26.1023 21.0753 26.0652 21.0125C26.0281 20.9623 26.3868 19.8954 26.8816 18.6653C27.4507 17.2093 27.7599 16.2428 27.7599 15.9038C27.7599 15.2511 27.4135 14.6235 26.8569 14.2846C26.4487 14.0461 26.1889 14.0336 22.6511 14.0085C19.5834 13.9834 18.8041 14.0085 18.5072 14.1591ZM25.2488 16.4812C25.2488 16.5566 24.9519 17.385 24.5808 18.339C23.0841 22.2301 23.0964 22.205 23.2696 22.6318C23.5665 23.3598 23.7521 23.3849 27.7846 23.3849H31.4461L29.133 26.8618C26.4982 30.8283 25.9786 31.5814 25.9168 31.5061C25.892 31.481 26.1147 30.4392 26.424 29.1965C26.7332 27.9413 26.9806 26.8367 26.9806 26.7112C26.9806 26.5982 26.8198 26.3346 26.6219 26.1338L26.2631 25.7698H22.2924C20.1153 25.7698 18.3093 25.7196 18.2722 25.6694C18.2474 25.6192 18.3464 24.6401 18.5072 23.5104C18.668 22.3682 18.9525 20.2971 19.1381 18.8912L19.4844 16.3557H22.3666C24.2716 16.3557 25.2488 16.4059 25.2488 16.4812Z" fill="#9CD580"/>
<path d="M21.717 0.229126C10.9317 1.60956 2.08231 10.1431 0.347616 20.8603C-1.38708 31.4771 3.46503 41.5919 12.7921 46.9379C14.5017 47.9168 18.4739 49.2972 20.5857 49.6737C21.6164 49.8494 23.6528 50 25.111 50C38.9885 49.9498 50 38.9063 50 25.0518C50 12.3267 40.6226 1.78525 27.8764 0.204029C25.4629 -0.0720596 24.2059 -0.0720596 21.717 0.229126ZM28.0021 3.21588C38.8879 4.772 46.958 14.0335 46.9831 24.9514C46.9831 32.6065 43.3126 39.3581 36.8767 43.5496C34.4381 45.1559 32.3263 45.9842 29.1837 46.6368C25.9909 47.2642 23.9545 47.2642 20.7617 46.6117C6.1802 43.65 -1.31165 27.9633 5.52655 14.7613C9.725 6.67951 18.9767 1.93584 28.0021 3.21588Z" fill="#9CD580"/>
</svg>
