<svg width="50" height="50" viewBox="0 0 50 50" fill="none" xmlns="http://www.w3.org/2000/svg">
<rect width="50" height="50" fill="white"/>
<rect width="50" height="50" rx="25" fill="#888888" fill-opacity="0.1"/>
<path d="M21.9774 13.0777C21.1996 13.2784 20.6477 13.8053 19.6316 15.3357L18.6281 16.841L16.9973 16.8535C15.0153 16.8535 14.501 16.979 14.1623 17.5184C13.7358 18.2208 14.1874 19.0488 15.078 19.1868L15.5547 19.2746V26.9391C15.5547 35.3438 15.5673 35.4567 16.2948 36.4476C16.759 37.0749 17.5116 37.6143 18.2392 37.8401C18.9793 38.0533 30.8211 38.0533 31.5612 37.8401C32.2762 37.6143 33.0414 37.0749 33.493 36.4602C34.2582 35.419 34.2457 35.6197 34.2457 27.2151C34.2457 23.0002 34.2958 19.4878 34.346 19.4251C34.3962 19.3498 34.6722 19.2118 34.9732 19.124C35.889 18.8606 36.1148 17.8696 35.4248 17.2173C35.1363 16.9413 34.9858 16.9162 33.1418 16.8661L31.1723 16.8159L30.1688 15.298C29.366 14.0938 29.0398 13.7175 28.5506 13.4038L27.9359 13.0275L25.1636 13.0024C23.6332 12.9899 22.2032 13.0275 21.9774 13.0777ZM28.0112 16.1009L28.4879 16.7908L25.0131 16.8284C23.1064 16.841 21.5132 16.8284 21.4882 16.8033C21.4505 16.7783 21.6387 16.4396 21.9021 16.0507L22.3663 15.3482L24.9504 15.3733L27.5219 15.4109L28.0112 16.1009ZM31.9877 26.8889C31.9877 33.4496 31.9626 34.6036 31.7995 34.9172C31.3981 35.695 31.649 35.6699 24.9253 35.6699C19.3682 35.6699 18.7786 35.6448 18.4775 35.4567C17.8127 35.0176 17.8127 35.0427 17.8127 26.8262V19.2369H24.9002H31.9877V26.8889Z" fill="#888888"/>
<path d="M20.6228 21.7207C20.2339 21.9841 20.1963 22.3855 20.1963 27.3029C20.1963 30.025 20.2339 32.4335 20.2716 32.6593C20.3719 33.1109 20.7733 33.3618 21.2375 33.2363C21.4131 33.1987 21.5887 33.0733 21.6263 32.9478C21.6891 32.7847 21.7267 27.19 21.7016 22.2225C21.7016 21.7709 21.0242 21.4447 20.6228 21.7207Z" fill="#888888"/>
<path d="M24.4108 21.821C24.2351 21.9967 24.21 22.674 24.21 27.4534C24.21 33.4872 24.185 33.3367 25.0129 33.2614C25.7028 33.1987 25.7154 33.1109 25.7154 27.4785C25.7154 22.3855 25.6903 21.9841 25.2888 21.7207C25.0505 21.5576 24.6115 21.6078 24.4108 21.821Z" fill="#888888"/>
<path d="M28.35 21.8712C28.1117 22.1095 28.0991 22.2852 28.0991 27.5036C28.0991 33.4245 28.0866 33.2865 28.8518 33.2865C29.6044 33.2865 29.6044 33.2739 29.6044 27.4283C29.6044 22.2852 29.5919 22.1095 29.3536 21.8712C29.2156 21.7332 28.9898 21.6203 28.8518 21.6203C28.7138 21.6203 28.488 21.7332 28.35 21.8712Z" fill="#888888"/>
<path d="M21.717 0.229126C10.9317 1.60956 2.08231 10.1431 0.347616 20.8603C-1.38708 31.4771 3.46503 41.5919 12.7921 46.9379C14.5017 47.9168 18.4739 49.2972 20.5857 49.6737C21.6164 49.8494 23.6528 50 25.111 50C38.9885 49.9498 50 38.9063 50 25.0518C50 12.3267 40.6226 1.78525 27.8764 0.204029C25.4629 -0.0720596 24.2059 -0.0720596 21.717 0.229126ZM28.0021 3.21588C38.8879 4.772 46.958 14.0335 46.9831 24.9514C46.9831 32.6065 43.3126 39.3581 36.8767 43.5496C34.4381 45.1559 32.3263 45.9842 29.1837 46.6368C25.9909 47.2642 23.9545 47.2642 20.7617 46.6117C6.1802 43.65 -1.31165 27.9633 5.52655 14.7613C9.725 6.67951 18.9767 1.93584 28.0021 3.21588Z" fill="#888888"/>
</svg>
