<svg width="50" height="50" viewBox="0 0 50 50" fill="none" xmlns="http://www.w3.org/2000/svg">
<rect width="50" height="50" fill="white"/>
<rect width="50" height="50" rx="25" fill="#888888" fill-opacity="0.1"/>
<path d="M21.717 0.229126C10.9317 1.60956 2.08231 10.1431 0.347616 20.8603C-1.38708 31.4771 3.46503 41.5919 12.7921 46.9379C14.5017 47.9168 18.4739 49.2972 20.5857 49.6737C21.6164 49.8494 23.6528 50 25.111 50C38.9885 49.9498 50 38.9063 50 25.0518C50 12.3267 40.6226 1.78525 27.8764 0.204028C25.4629 -0.072059 24.2059 -0.072059 21.717 0.229126ZM28.0021 3.21588C38.8879 4.772 46.958 14.0335 46.9831 24.9514C46.9831 32.6065 43.3126 39.3581 36.8767 43.5496C34.4381 45.1559 32.3263 45.9842 29.1837 46.6368C25.9909 47.2642 23.9545 47.2642 20.7617 46.6117C6.1802 43.65 -1.31165 27.9633 5.52655 14.7613C9.725 6.67951 18.9767 1.93584 28.0021 3.21588Z" fill="#888888"/>
<path d="M20 19C20 16.7938 21.7938 15 24 15H26C28.2062 15 30 16.7938 30 19V19.225C30 20.5875 29.3063 21.8562 28.1625 22.5875L25.525 24.2812C23.95 25.2938 23 27.0375 23 28.9062V29C23 30.1063 23.8937 31 25 31C26.1063 31 27 30.1063 27 29V28.9125C27 28.4 27.2625 27.925 27.6875 27.65L30.325 25.9562C32.6125 24.4812 34 21.95 34 19.225V19C34 14.5813 30.4187 11 26 11H24C19.5813 11 16 14.5813 16 19C16 20.1063 16.8937 21 18 21C19.1063 21 20 20.1063 20 19ZM25 39C25.663 39 26.2989 38.7366 26.7678 38.2678C27.2366 37.7989 27.5 37.163 27.5 36.5C27.5 35.837 27.2366 35.2011 26.7678 34.7322C26.2989 34.2634 25.663 34 25 34C24.337 34 23.7011 34.2634 23.2322 34.7322C22.7634 35.2011 22.5 35.837 22.5 36.5C22.5 37.163 22.7634 37.7989 23.2322 38.2678C23.7011 38.7366 24.337 39 25 39Z" fill="#888888"/>
</svg>
