<svg width="50" height="50" viewBox="0 0 50 50" fill="none" xmlns="http://www.w3.org/2000/svg">
  <rect width="50" height="50" fill="white"/>
  <rect width="50" height="50" rx="25" fill="#E7015B" fill-opacity="0.1"/>
  <path d="M25.9976 14.4809C25.1428 15.4347 25.4445 15.9618 28.9642 19.5258C30.8246 21.4333 32.3581 23.0396 32.3581 23.14C32.3581 23.2404 28.2603 23.3157 23.2322 23.3157C13.176 23.3157 13 23.3408 13 24.7965C13 26.177 13.0251 26.2021 23.2322 26.3275L32.6095 26.453L29.0899 30.0924C25.4697 33.8321 25.1428 34.3843 26.0228 35.1874C27.0535 36.1412 27.4809 35.84 32.8107 30.519C36.7074 26.6287 37.889 25.2985 37.889 24.8216C37.889 24.3447 36.7074 23.0145 32.7855 19.0991C27.4306 13.7531 26.9529 13.4268 25.9976 14.4809Z" fill="#E7015B"/>
  <path d="M21.717 0.229126C10.9317 1.60956 2.08231 10.1431 0.347616 20.8603C-1.38708 31.4771 3.46503 41.5919 12.7921 46.9379C14.5017 47.9168 18.4739 49.2972 20.5857 49.6737C21.6164 49.8494 23.6528 50 25.111 50C38.9885 49.9498 50 38.9063 50 25.0518C50 12.3267 40.6226 1.78525 27.8764 0.204028C25.4629 -0.072059 24.2059 -0.072059 21.717 0.229126ZM28.0021 3.21588C38.8879 4.772 46.958 14.0335 46.9831 24.9514C46.9831 32.6065 43.3126 39.3581 36.8767 43.5496C34.4381 45.1559 32.3263 45.9842 29.1837 46.6368C25.9909 47.2642 23.9545 47.2642 20.7617 46.6117C6.1802 43.65 -1.31165 27.9633 5.52655 14.7613C9.725 6.67951 18.9767 1.93584 28.0021 3.21588Z" fill="#E7015B"/>
</svg>
