<svg width="50" height="50" viewBox="0 0 50 50" fill="none" xmlns="http://www.w3.org/2000/svg">
<rect width="50" height="50" fill="white"/>
<rect width="50" height="50" rx="25" fill="#9CD580" fill-opacity="0.2"/>
<path d="M21.717 0.229126C10.9317 1.60956 2.08231 10.1431 0.347616 20.8603C-1.38708 31.4771 3.46503 41.5919 12.7921 46.9379C14.5017 47.9168 18.4739 49.2972 20.5857 49.6737C21.6164 49.8494 23.6528 50 25.111 50C38.9885 49.9498 50 38.9063 50 25.0518C50 12.3267 40.6226 1.78525 27.8764 0.204028C25.4629 -0.072059 24.2059 -0.072059 21.717 0.229126ZM28.0021 3.21588C38.8879 4.772 46.958 14.0335 46.9831 24.9514C46.9831 32.6065 43.3126 39.3581 36.8767 43.5496C34.4381 45.1559 32.3263 45.9842 29.1837 46.6368C25.9909 47.2642 23.9545 47.2642 20.7617 46.6117C6.1802 43.65 -1.31165 27.9633 5.52655 14.7613C9.725 6.67951 18.9767 1.93584 28.0021 3.21588Z" fill="#9CD580"/>
<path d="M25.5384 14.7111C24.6836 15.6649 24.9853 16.1919 28.505 19.756C30.3653 21.6635 31.8989 23.2698 31.8989 23.3702C31.8989 23.4706 27.801 23.5459 22.7729 23.5459C12.7168 23.5459 12.5408 23.571 12.5408 25.0267C12.5408 26.4071 12.5659 26.4322 22.7729 26.5577L32.1503 26.6832L28.6307 30.3226C25.0104 34.0623 24.6836 34.6144 25.5635 35.4176C26.5943 36.3714 27.0217 36.0702 32.3514 30.7492C36.2482 26.8589 37.4298 25.5287 37.4298 25.0518C37.4298 24.5749 36.2482 23.2447 32.3263 19.3293C26.9714 13.9833 26.4937 13.657 25.5384 14.7111Z" fill="#9CD580"/>
</svg>
