<svg width="50" height="102" viewBox="0 0 50 102" fill="none" xmlns="http://www.w3.org/2000/svg">
<rect width="50" height="50" transform="translate(0 52)" fill="white"/>
<rect y="52" width="50" height="50" rx="25" fill="#E7015B" fill-opacity="0.1"/>
<path d="M21.717 52.2291C10.9317 53.6096 2.08231 62.1431 0.347616 72.8603C-1.38708 83.4771 3.46503 93.5919 12.7921 98.9379C14.5017 99.9168 18.4739 101.297 20.5857 101.674C21.6164 101.849 23.6528 102 25.111 102C38.9885 101.95 50 90.9063 50 77.0518C50 64.3267 40.6226 53.7853 27.8764 52.204C25.4629 51.9279 24.2059 51.9279 21.717 52.2291ZM28.0021 55.2159C38.8879 56.772 46.958 66.0335 46.9831 76.9514C46.9831 84.6065 43.3126 91.3581 36.8767 95.5496C34.4381 97.1559 32.3263 97.9842 29.1837 98.6368C25.9909 99.2642 23.9545 99.2642 20.7617 98.6117C6.1802 95.65 -1.31165 79.9633 5.52655 66.7613C9.725 58.6795 18.9767 53.9358 28.0021 55.2159Z" fill="#E7015B"/>
<path d="M25.5384 66.7111C24.6836 67.6649 24.9853 68.1919 28.505 71.756C30.3653 73.6635 31.8989 75.2698 31.8989 75.3702C31.8989 75.4706 27.801 75.5459 22.7729 75.5459C12.7168 75.5459 12.5408 75.571 12.5408 77.0267C12.5408 78.4071 12.5659 78.4322 22.7729 78.5577L32.1503 78.6832L28.6307 82.3226C25.0104 86.0623 24.6836 86.6144 25.5635 87.4176C26.5943 88.3714 27.0217 88.0702 32.3514 82.7492C36.2482 78.8589 37.4298 77.5287 37.4298 77.0518C37.4298 76.5749 36.2482 75.2447 32.3263 71.3293C26.9714 65.9833 26.4937 65.657 25.5384 66.7111Z" fill="#E7015B"/>
<path d="M25 1L31 7M25 7L31 1" stroke="#E7015B" stroke-width="2" stroke-linecap="round" stroke-linejoin="round"/>
</svg>
